<svg width="256" height="256" viewBox="0 0 256 256" fill="none" xmlns="http://www.w3.org/2000/svg">
  <rect width="256" height="256" rx="48" fill="#1E1E1E"/>
  <rect x="32" y="32" width="192" height="192" rx="16" fill="#252526" stroke="#333333" stroke-width="4"/>
  
  <!-- Data Grid - Raw Section -->
  <rect x="48" y="48" width="40" height="40" rx="4" fill="#007ACC" fill-opacity="0.8"/>
  <rect x="96" y="48" width="40" height="40" rx="4" fill="#007ACC" fill-opacity="0.4"/>
  <rect x="144" y="48" width="40" height="40" rx="4" fill="#333333"/>
  <rect x="192" y="48" width="16" height="40" rx="4" fill="#333333"/>

  <rect x="48" y="96" width="40" height="40" rx="4" fill="#007ACC" fill-opacity="0.6"/>
  <rect x="96" y="96" width="40" height="40" rx="4" fill="#00BCD4" fill-opacity="0.9"/>
  <rect x="144" y="96" width="40" height="40" rx="4" fill="#00BCD4" fill-opacity="0.5"/>
  <rect x="192" y="96" width="16" height="40" rx="4" fill="#333333"/>

  <rect x="48" y="144" width="40" height="40" rx="4" fill="#333333"/>
  <rect x="96" y="144" width="40" height="40" rx="4" fill="#E040FB" fill-opacity="0.4"/>
  <rect x="144" y="144" width="40" height="40" rx="4" fill="#E040FB" fill-opacity="0.8"/>
  <rect x="192" y="144" width="16" height="40" rx="4" fill="#E040FB" fill-opacity="0.2"/>

  <rect x="48" y="192" width="40" height="16" rx="4" fill="#333333"/>
  <rect x="96" y="192" width="40" height="16" rx="4" fill="#333333"/>
  <rect x="144" y="192" width="40" height="16" rx="4" fill="#333333"/>
  <rect x="192" y="192" width="16" height="16" rx="4" fill="#333333"/>

  <!-- Binary overlay hints -->
  <text x="52" y="78" fill="white" font-family="monospace" font-size="24" font-weight="bold" opacity="0.3">0</text>
  <text x="100" y="126" fill="white" font-family="monospace" font-size="24" font-weight="bold" opacity="0.3">1</text>
  <text x="148" y="174" fill="white" font-family="monospace" font-size="24" font-weight="bold" opacity="0.3">0</text>

  <!-- Frame/Focus element -->
  <path d="M40 80V40H80" stroke="#007ACC" stroke-width="8" stroke-linecap="round"/>
  <path d="M176 40H216V80" stroke="#007ACC" stroke-width="8" stroke-linecap="round"/>
  <path d="M216 176V216H176" stroke="#007ACC" stroke-width="8" stroke-linecap="round"/>
  <path d="M80 216H40V176" stroke="#007ACC" stroke-width="8" stroke-linecap="round"/>
</svg>
